<?xml version="1.0" encoding="utf-8"?>
<!-- Generator: Adobe Illustrator 16.0.0, SVG Export Plug-In . SVG Version: 6.00 Build 0)  -->
<!DOCTYPE svg PUBLIC "-//W3C//DTD SVG 1.1//EN" "http://www.w3.org/Graphics/SVG/1.1/DTD/svg11.dtd">
<svg version="1.1" id="Layer_1" xmlns="http://www.w3.org/2000/svg" xmlns:xlink="http://www.w3.org/1999/xlink" x="0px" y="0px"
	 width="213.936px" height="73.834px" viewBox="0 0 213.936 73.834" enable-background="new 0 0 213.936 73.834"
	 xml:space="preserve">
<g>
	<defs>
		<rect id="SVGID_1_" y="0" width="213.936" height="73.834"/>
	</defs>
	<clipPath id="SVGID_2_">
		<use xlink:href="#SVGID_1_"  overflow="visible"/>
	</clipPath>
	<path clip-path="url(#SVGID_2_)" fill="#BF2C2A" d="M52.712,51l15.052-15.944c3.114-3.3,4.68-7.652,4.68-11.996
		c0-4.343-1.557-8.696-4.68-11.995C64.65,7.767,60.541,6.108,56.44,6.108c-4.099,0-8.208,1.648-11.322,4.948l-4.463,4.728
		l-4.404-4.664c-3.114-3.299-7.214-4.949-11.323-4.949V6.163c-4.099,0-8.209,1.649-11.323,4.958
		c-3.114,3.299-4.68,7.651-4.68,11.995c0,4.343,1.557,8.696,4.672,11.995l29.566,31.322l-2.517,2.666L11.079,37.777
		c-3.797-4.032-5.701-9.338-5.701-14.662c0-5.315,1.904-10.63,5.701-14.661c3.798-4.033,8.814-6.039,13.84-6.039v-0.01
		c5.018,0,10.035,2.016,13.841,6.049l1.886,1.997l1.945-2.062c3.807-4.032,8.815-6.039,13.841-6.039
		c5.017,0,10.035,2.016,13.832,6.039c3.797,4.023,5.7,9.338,5.7,14.661c0,5.316-1.903,10.63-5.7,14.662L55.212,53.659l-2.516-2.668
		L52.712,51z M48.586,44.722l14.153-14.991c1.729-1.833,2.594-4.253,2.594-6.671c0-2.419-0.865-4.839-2.594-6.671
		c-1.722-1.824-4.014-2.74-6.299-2.74V13.64c-2.283,0-4.566,0.916-6.297,2.749l-9.488,10.053l-9.43-9.989
		c-1.729-1.832-4.014-2.749-6.297-2.749v0.008c-2.284,0-4.576,0.918-6.297,2.741c-1.722,1.824-2.587,4.252-2.587,6.67h-0.009
		c0,2.42,0.865,4.839,2.596,6.672l29.566,31.321l-2.517,2.666L16.113,32.461c-2.413-2.556-3.624-5.946-3.624-9.338H12.48
		c0-3.38,1.212-6.771,3.633-9.336c2.423-2.566,5.614-3.85,8.815-3.85v0.01c3.201,0,6.393,1.283,8.806,3.84l6.912,7.32l6.972-7.385
		c2.413-2.557,5.613-3.839,8.806-3.839v-0.01c3.191,0,6.392,1.283,8.814,3.849c2.414,2.557,3.625,5.947,3.625,9.338
		c0,3.39-1.211,6.772-3.625,9.338L51.087,47.389l-2.518-2.667H48.586z M43.517,39.435l14.187-15.028
		c0.337-0.366,0.51-0.852,0.51-1.347c0-0.495-0.173-0.98-0.51-1.347c-0.347-0.357-0.805-0.541-1.272-0.541
		c-0.467,0-0.925,0.184-1.271,0.541L40.646,37.089L26.191,21.777c-0.337-0.357-0.805-0.54-1.272-0.54
		c-0.467,0-0.934,0.182-1.272,0.54h-0.008c-0.337,0.357-0.502,0.844-0.502,1.347c0,0.504,0.165,0.99,0.502,1.348l29.558,31.312
		l-2.517,2.667L21.122,27.138v-0.01c-1.029-1.09-1.548-2.547-1.548-4.005c0-1.447,0.519-2.903,1.548-4.003
		c1.029-1.091,2.413-1.641,3.78-1.641c1.375,0,2.752,0.55,3.789,1.641l11.937,12.646l11.997-12.711
		c1.03-1.09,2.406-1.631,3.781-1.631s2.751,0.541,3.78,1.631h0.009c1.03,1.09,1.54,2.547,1.54,4.014c0,1.457-0.51,2.914-1.54,4.004
		v0.009L46.009,42.112l-2.517-2.667L43.517,39.435z"/>
	<g clip-path="url(#SVGID_2_)">
		<text transform="matrix(1 0 0 1 79.0571 35.7241)" fill="#1B1B1C" font-family="'Helvetica-Bold'" font-size="38">FLIRTY</text>
	</g>
	<g clip-path="url(#SVGID_2_)">
		<text transform="matrix(1 0 0 1 79.0571 65.7065)" fill="#BF2C2A" font-family="'Helvetica'" font-size="38">BUM</text>
	</g>
</g>
</svg>
