<svg xmlns="http://www.w3.org/2000/svg" width="225" height="56.97" viewBox="0 0 225 56.97">
  <g id="Group_27" data-name="Group 27" transform="translate(-984 185)">
    <path id="Path_37" data-name="Path 37" d="M85.825,59.853a23.6,23.6,0,1,1,33.373,0L102.511,76.539l-5.424-5.424,2.852-2.852,2.565,2.565,13.833-13.834a19.561,19.561,0,1,0-27.667,0l5.558,5.556,17.239-17.239a5.324,5.324,0,0,0-3.77-9.093v-.007a5.319,5.319,0,0,0-3.77,1.562L102.5,39.2l-1.43-1.43a5.331,5.331,0,0,0-7.539,7.539l6.116,6.116L96.791,54.28l-6.116-6.116A9.37,9.37,0,0,1,102.5,33.746a9.359,9.359,0,0,1,5.192-1.554v-.007a9.365,9.365,0,0,1,6.622,15.979L97.071,65.4l-1.429,1.43-1.43,1.43-8.41-8.41Z" transform="translate(905.084 -204.569)" fill="#fff"/>
    <text id="Fun_Time_Flirt" data-name="Fun Time Flirt" transform="translate(1049 -157)" fill="#fff" font-size="18" font-family="SegoeUI-Bold, Segoe UI" font-weight="700" letter-spacing="0.1em"><tspan x="0" y="0">FUN TIME FLIRT</tspan></text>
    <g id="Group_26" data-name="Group 26" transform="translate(500.892 8.351)">
      <path id="Path_13" data-name="Path 13" d="M59.645,183.032v.67a2.915,2.915,0,0,0-.886-.148,1.083,1.083,0,0,0-1.125,1.221v.968h1.743v.711H57.634v5.993h-.778v-5.993H55.85v-.711h1.006v-.536c0-1.233.361-2.32,1.825-2.32A3.954,3.954,0,0,1,59.645,183.032Z" transform="translate(505.259 -340.003)" fill="#fff"/>
      <path id="Path_14" data-name="Path 14" d="M64.38,190.344V186.12h.79v4.171a1.8,1.8,0,0,0,1.9,1.985,2.305,2.305,0,0,0,2.265-2.562V186.12h.79v6.7h-.79V191.5a2.5,2.5,0,0,1-2.373,1.5A2.447,2.447,0,0,1,64.38,190.344Z" transform="translate(504.264 -340.38)" fill="#fff"/>
      <path id="Path_15" data-name="Path 15" d="M81.825,188.589V192.8h-.778V188.63a1.8,1.8,0,0,0-1.918-1.986,2.32,2.32,0,0,0-2.265,2.562V192.8h-.778v-6.7h.778v1.314a2.5,2.5,0,0,1,2.387-1.489A2.439,2.439,0,0,1,81.825,188.589Z" transform="translate(502.898 -340.357)" fill="#fff"/>
      <path id="Path_16" data-name="Path 16" d="M90.685,192.517a3.106,3.106,0,0,1-1.1.187c-1.449,0-1.836-1.006-1.836-2.295v-3.795H86.744v-.708H87.75v-1.5l.79-.119v1.621H90.6v.711H88.54v3.769c0,1.006.254,1.624,1.166,1.624a2.752,2.752,0,0,0,.979-.175Z" transform="translate(501.654 -340.166)" fill="#fff"/>
      <path id="Path_17" data-name="Path 17" d="M96.37,183.143a.544.544,0,1,1-.551.551A.533.533,0,0,1,96.37,183.143Zm.388,9.334H95.98v-6.7h.778Z" transform="translate(500.595 -340.033)" fill="#fff"/>
      <path id="Path_18" data-name="Path 18" d="M111.9,188.429V192.8h-.79v-4.251a1.662,1.662,0,0,0-1.744-1.9,2.083,2.083,0,0,0-1.958,2.346V192.8h-.791v-4.251c0-1.166-.617-1.9-1.649-1.9a2.137,2.137,0,0,0-2.064,2.4V192.8h-.778v-6.7h.778v1.166a2.219,2.219,0,0,1,2.026-1.314,2.805,2.805,0,0,1,.752.052,1.987,1.987,0,0,1,1.556,1.422,2.431,2.431,0,0,1,2.253-1.5A2.272,2.272,0,0,1,111.9,188.429Z" transform="translate(499.86 -340.357)" fill="#fff"/>
      <path id="Path_19" data-name="Path 19" d="M123.56,190.909h.831a3.364,3.364,0,0,1-3.085,2.064,3.528,3.528,0,0,1,.012-7.054,3.28,3.28,0,0,1,3.206,3.512,2.131,2.131,0,0,1-.015.309h-5.848a2.558,2.558,0,0,0,2.641,2.536A2.525,2.525,0,0,0,123.56,190.909Zm-4.894-1.8h5.069a2.467,2.467,0,0,0-2.428-2.495A2.627,2.627,0,0,0,118.666,189.113Z" transform="translate(498.022 -340.357)" fill="#fff"/>
      <path id="Path_20" data-name="Path 20" d="M133.07,183.032v.67a2.915,2.915,0,0,0-.886-.148,1.083,1.083,0,0,0-1.125,1.221v.968H132.8v.711h-1.743v5.993h-.778v-5.993h-1.006v-.711h1.006v-.536c0-1.233.361-2.32,1.825-2.32A3.949,3.949,0,0,1,133.07,183.032Z" transform="translate(496.692 -340.003)" fill="#fff"/>
      <path id="Path_21" data-name="Path 21" d="M137.652,182.886v9.561h-.778v-9.561Z" transform="translate(495.805 -340.003)" fill="#fff"/>
      <path id="Path_22" data-name="Path 22" d="M143.375,183.143a.544.544,0,1,1-.551.551A.533.533,0,0,1,143.375,183.143Zm.388,9.334h-.778v-6.7h.778Z" transform="translate(495.111 -340.033)" fill="#fff"/>
      <path id="Path_23" data-name="Path 23" d="M149.9,186.1v1.5a2.855,2.855,0,0,1,2.48-1.664v.845a2.479,2.479,0,0,0-2.48,2.536V192.8h-.778v-6.7Z" transform="translate(494.376 -340.359)" fill="#fff"/>
      <path id="Path_24" data-name="Path 24" d="M160.734,192.517a3.109,3.109,0,0,1-1.1.187c-1.449,0-1.836-1.006-1.836-2.295v-3.795h-1.005v-.708H157.8v-1.5l.791-.119v1.621h2.063v.711h-2.063v3.769c0,1.006.253,1.624,1.166,1.624a2.757,2.757,0,0,0,.98-.175Z" transform="translate(493.481 -340.166)" fill="#fff"/>
      <path id="Path_25" data-name="Path 25" d="M166.34,192.618a.57.57,0,1,1,0,1.139.57.57,0,1,1,0-1.139Z" transform="translate(492.435 -341.139)" fill="#fff"/>
      <path id="Path_26" data-name="Path 26" d="M177.459,190.429h.8A3.258,3.258,0,0,1,175,192.976a3.528,3.528,0,0,1,0-7.054,3.241,3.241,0,0,1,3.285,2.629h-.79a2.52,2.52,0,0,0-2.5-1.877,2.777,2.777,0,0,0,0,5.55A2.455,2.455,0,0,0,177.459,190.429Z" transform="translate(491.76 -340.357)" fill="#fff"/>
      <path id="Path_27" data-name="Path 27" d="M190.321,189.449a3.461,3.461,0,1,1-3.46-3.527A3.379,3.379,0,0,1,190.321,189.449Zm-.793,0a2.671,2.671,0,1,0-2.667,2.789A2.662,2.662,0,0,0,189.528,189.449Z" transform="translate(490.377 -340.357)" fill="#fff"/>
      <path id="Path_28" data-name="Path 28" d="M205.639,188.429V192.8h-.791v-4.251a1.662,1.662,0,0,0-1.743-1.9,2.084,2.084,0,0,0-1.959,2.346V192.8h-.79v-4.251c0-1.166-.618-1.9-1.65-1.9a2.137,2.137,0,0,0-2.063,2.4V192.8h-.778v-6.7h.778v1.166a2.219,2.219,0,0,1,2.026-1.314,2.812,2.812,0,0,1,.753.052,1.987,1.987,0,0,1,1.556,1.422,2.431,2.431,0,0,1,2.253-1.5A2.271,2.271,0,0,1,205.639,188.429Z" transform="translate(488.923 -340.357)" fill="#fff"/>
    </g>
  </g>
</svg>
