<svg xmlns="http://www.w3.org/2000/svg" width="16" height="13.712" viewBox="0 0 16 13.712">
  <g id="message" transform="translate(-1 -3.51)">
    <path id="Path_38" data-name="Path 38" d="M11.549,3.51h-5.1A5.456,5.456,0,0,0,1,8.961v.832a5.456,5.456,0,0,0,5.451,5.451H8.467l1.019,1.6a.8.8,0,0,0,1.365-.011l.981-1.6A5.275,5.275,0,0,0,17,9.979V8.961A5.456,5.456,0,0,0,11.549,3.51Zm4.384,6.469a4.2,4.2,0,0,1-4.2,4.2.864.864,0,0,0-.736.416l-.816,1.344-.859-1.36a.859.859,0,0,0-.731-.4H6.461A4.389,4.389,0,0,1,2.067,9.793V8.961A4.389,4.389,0,0,1,6.451,4.577h5.1a4.389,4.389,0,0,1,4.384,4.384Z" transform="translate(0 0)" fill="#4267b2"/>
    <path id="Path_39" data-name="Path 39" d="M15.867,10.59H10.533a.533.533,0,0,0,0,1.067h5.333a.533.533,0,0,0,0-1.067Z" transform="translate(-4.2 -3.304)" fill="#4267b2"/>
    <path id="Path_40" data-name="Path 40" d="M15.867,16.13H10.533a.533.533,0,0,0,0,1.067h5.333a.533.533,0,0,0,0-1.067Z" transform="translate(-4.2 -5.889)" fill="#4267b2"/>
  </g>
</svg>
