<svg xmlns="http://www.w3.org/2000/svg" width="186.867" height="34.582" viewBox="0 0 186.867 34.582">
  <g id="Logo" transform="translate(-555.062 176.209)">
    <path id="Path_1" data-name="Path 1" d="M50.848,161.73H42.573v5.316H49.8v2.409H42.573v7.424H40.016V159.325H50.848Z" transform="translate(515.046 -335.53)" fill="#2a3b4c"/>
    <path id="Path_2" data-name="Path 2" d="M65.569,170.832V159.324h2.557v11.561c0,3.663-2.933,6.345-6.9,6.345s-6.9-2.683-6.9-6.345V159.324h2.557v11.512a4.061,4.061,0,0,0,4.339,4.011C63.213,174.848,65.569,173.644,65.569,170.832Z" transform="translate(515.044 -335.53)" fill="#2a3b4c"/>
    <path id="Path_3" data-name="Path 3" d="M86.537,176.877H83.98l-8.8-13.241v13.241H72.62V159.324h2.557l8.8,13.165V159.324h2.557Z" transform="translate(515.041 -335.53)" fill="#2a3b4c"/>
    <path id="Path_4" data-name="Path 4" d="M104.869,161.73v15.148h-2.557V161.73H97.019v-2.409h13.141v2.409Z" transform="translate(515.038 -335.53)" fill="#2a3b4c"/>
    <path id="Path_5" data-name="Path 5" d="M115.883,159.324v17.553h-2.558V159.324Z" transform="translate(515.035 -335.53)" fill="#2a3b4c"/>
    <path id="Path_6" data-name="Path 6" d="M134.315,159.324h2.557v17.553h-2.557V164.289l-4.814,8.075h-1.756l-4.813-8.075v12.588h-2.558V159.324h2.558l5.691,9.579Z" transform="translate(515.034 -335.53)" fill="#2a3b4c"/>
    <path id="Path_7" data-name="Path 7" d="M152.973,161.73H143.92v4.916h8v2.409h-8v5.417h9.054v2.409H141.362V159.327h11.611Z" transform="translate(515.031 -335.53)" fill="#2a3b4c"/>
    <path id="Path_8" data-name="Path 8" d="M174.743,161.73h-8.276v5.315h7.223v2.409h-7.223v7.424h-2.557V159.324h10.832Z" transform="translate(515.027 -335.53)" fill="#2a3b4c"/>
    <path id="Path_9" data-name="Path 9" d="M180.787,174.469h8.025v2.409H178.229V159.324h2.558Z" transform="translate(515.025 -335.53)" fill="#2a3b4c"/>
    <path id="Path_10" data-name="Path 10" d="M194.532,159.324v17.553h-2.558V159.324Z" transform="translate(515.023 -335.53)" fill="#2a3b4c"/>
    <path id="Path_11" data-name="Path 11" d="M207.622,170.03l4.137,6.847h-2.835l-3.81-6.569h-3.537v6.569H199.02V159.324h6.9a5.35,5.35,0,0,1,5.615,5.493A5.134,5.134,0,0,1,207.622,170.03Zm-6.045-2.082h4.362A2.981,2.981,0,0,0,209,164.814a2.947,2.947,0,0,0-3.085-3.085h-4.338v6.219Z" transform="translate(515.022 -335.53)" fill="#2a3b4c"/>
    <path id="Path_12" data-name="Path 12" d="M221.617,161.73v15.148h-2.558V161.73h-5.292v-2.409h13.142v2.409Z" transform="translate(515.02 -335.53)" fill="#2a3b4c"/>
    <path id="Path_13" data-name="Path 13" d="M60.146,183.051v.759a3.3,3.3,0,0,0-1-.168,1.226,1.226,0,0,0-1.274,1.382v1.1h1.973v.8H57.869v6.784h-.881v-6.784H55.85v-.8h1.138v-.607c0-1.4.409-2.627,2.065-2.627A4.476,4.476,0,0,1,60.146,183.051Z" transform="translate(515.044 -335.534)" fill="#e25771"/>
    <path id="Path_14" data-name="Path 14" d="M64.38,190.9V186.12h.894v4.721a2.036,2.036,0,0,0,2.155,2.247,2.609,2.609,0,0,0,2.564-2.9V186.12h.894v7.589h-.894v-1.5a2.826,2.826,0,0,1-2.686,1.7A2.77,2.77,0,0,1,64.38,190.9Z" transform="translate(515.043 -335.534)" fill="#e25771"/>
    <path id="Path_15" data-name="Path 15" d="M82.582,188.941v4.768H81.7v-4.721a2.041,2.041,0,0,0-2.171-2.248,2.626,2.626,0,0,0-2.564,2.9v4.068h-.881V186.12h.881v1.488a2.835,2.835,0,0,1,2.7-1.686A2.76,2.76,0,0,1,82.582,188.941Z" transform="translate(515.041 -335.534)" fill="#e25771"/>
    <path id="Path_16" data-name="Path 16" d="M91.205,193.6a3.515,3.515,0,0,1-1.244.212c-1.64,0-2.079-1.139-2.079-2.6v-4.3H86.744v-.8h1.138v-1.7l.894-.135v1.835h2.336v.8H88.777v4.266c0,1.139.287,1.838,1.32,1.838a3.115,3.115,0,0,0,1.109-.2Z" transform="translate(515.039 -335.534)" fill="#e25771"/>
    <path id="Path_17" data-name="Path 17" d="M96.443,183.143a.615.615,0,1,1-.624.624A.6.6,0,0,1,96.443,183.143Zm.439,10.565H96V186.12h.881Z" transform="translate(515.038 -335.534)" fill="#e25771"/>
    <path id="Path_18" data-name="Path 18" d="M113.185,188.76v4.949h-.894V188.9a1.882,1.882,0,0,0-1.974-2.154c-1.32,0-2.217,1.108-2.217,2.656v4.309h-.895V188.9c0-1.32-.7-2.154-1.867-2.154A2.419,2.419,0,0,0,103,189.458v4.25h-.881V186.12H103v1.32a2.512,2.512,0,0,1,2.294-1.488,3.175,3.175,0,0,1,.851.059,2.249,2.249,0,0,1,1.762,1.61,2.751,2.751,0,0,1,2.551-1.7A2.572,2.572,0,0,1,113.185,188.76Z" transform="translate(515.037 -335.534)" fill="#e25771"/>
    <path id="Path_19" data-name="Path 19" d="M124.31,191.567h.941a3.808,3.808,0,0,1-3.491,2.337,3.994,3.994,0,0,1,.014-7.985,3.712,3.712,0,0,1,3.629,3.975,2.413,2.413,0,0,1-.017.35h-6.619a2.9,2.9,0,0,0,2.99,2.871A2.858,2.858,0,0,0,124.31,191.567Zm-5.539-2.033h5.737a2.792,2.792,0,0,0-2.749-2.824A2.974,2.974,0,0,0,118.771,189.534Z" transform="translate(515.034 -335.534)" fill="#e25771"/>
    <path id="Path_20" data-name="Path 20" d="M133.57,183.051v.759a3.3,3.3,0,0,0-1-.168,1.226,1.226,0,0,0-1.274,1.382v1.1h1.973v.8h-1.973v6.784h-.881v-6.784h-1.139v-.8h1.139v-.607c0-1.4.409-2.627,2.066-2.627A4.47,4.47,0,0,1,133.57,183.051Z" transform="translate(515.033 -335.534)" fill="#e25771"/>
    <path id="Path_21" data-name="Path 21" d="M137.755,182.886v10.822h-.881V182.886Z" transform="translate(515.032 -335.534)" fill="#e25771"/>
    <path id="Path_22" data-name="Path 22" d="M143.448,183.143a.615.615,0,1,1-.624.624A.6.6,0,0,1,143.448,183.143Zm.439,10.565h-.881V186.12h.881Z" transform="translate(515.031 -335.534)" fill="#e25771"/>
    <path id="Path_23" data-name="Path 23" d="M150,186.12v1.7a3.232,3.232,0,0,1,2.808-1.884v.957A2.806,2.806,0,0,0,150,189.762v3.946h-.881V186.12Z" transform="translate(515.03 -335.534)" fill="#e25771"/>
    <path id="Path_24" data-name="Path 24" d="M161.254,193.6a3.519,3.519,0,0,1-1.245.212c-1.64,0-2.079-1.139-2.079-2.6v-4.3h-1.138v-.8h1.138v-1.7l.895-.135v1.835h2.336v.8h-2.336v4.266c0,1.139.287,1.838,1.32,1.838a3.12,3.12,0,0,0,1.109-.2Z" transform="translate(515.029 -335.534)" fill="#e25771"/>
    <path id="Path_25" data-name="Path 25" d="M166.416,192.618a.645.645,0,1,1,0,1.29.645.645,0,1,1,0-1.29Z" transform="translate(515.027 -335.535)" fill="#e25771"/>
    <path id="Path_26" data-name="Path 26" d="M178.239,191.023h.91a3.688,3.688,0,0,1-3.688,2.883,3.993,3.993,0,0,1,0-7.985,3.669,3.669,0,0,1,3.718,2.976h-.894a2.853,2.853,0,0,0-2.825-2.125,3.143,3.143,0,0,0,0,6.282A2.779,2.779,0,0,0,178.239,191.023Z" transform="translate(515.026 -335.534)" fill="#e25771"/>
    <path id="Path_27" data-name="Path 27" d="M191.234,189.914a3.917,3.917,0,1,1-3.916-3.992A3.825,3.825,0,0,1,191.234,189.914Zm-.9,0a3.023,3.023,0,1,0-3.019,3.157A3.014,3.014,0,0,0,190.336,189.914Z" transform="translate(515.024 -335.534)" fill="#e25771"/>
    <path id="Path_28" data-name="Path 28" d="M206.928,188.76v4.949h-.895V188.9a1.882,1.882,0,0,0-1.973-2.154c-1.32,0-2.218,1.108-2.218,2.656v4.309h-.894V188.9c0-1.32-.7-2.154-1.868-2.154a2.419,2.419,0,0,0-2.336,2.715v4.25h-.881V186.12h.881v1.32a2.512,2.512,0,0,1,2.293-1.488,3.182,3.182,0,0,1,.852.059,2.249,2.249,0,0,1,1.762,1.61,2.751,2.751,0,0,1,2.551-1.7A2.571,2.571,0,0,1,206.928,188.76Z" transform="translate(515.023 -335.534)" fill="#e25771"/>
  </g>
</svg>
