<svg xmlns="http://www.w3.org/2000/svg" width="25.84" height="34" viewBox="0 0 25.84 34">
  <g id="regular" transform="translate(-61.439)">
    <path id="Path_70" data-name="Path 70" d="M101.957,0A11.026,11.026,0,0,0,91,11.023,25.517,25.517,0,0,0,93.1,21.5a1,1,0,0,0,.891.551h2.754A8.06,8.06,0,0,1,93.988,16V14.968a3,3,0,0,1,2.784-2.981c2.543-.171,5.647-.909,6.746-2.464a2.988,2.988,0,0,1,5.262.735,15.247,15.247,0,0,1,1.146,5.51,8.368,8.368,0,0,1-2.764,6.279h2.764a1,1,0,0,0,.891-.551,25.517,25.517,0,0,0,2.1-10.473A11.026,11.026,0,0,0,101.957,0Z" transform="translate(-27.598)" fill="rgba(0,0,0,0.5)"/>
    <path id="Path_71" data-name="Path 71" d="M111.16,357.513a48.118,48.118,0,0,0,19.222-.007,14.889,14.889,0,0,0-2.39-.873c-1.583-.473-3.384-.938-4.407-2.669a7.613,7.613,0,0,1-5.583.007c-1.009,1.709-2.833,2.183-4.439,2.663A14.779,14.779,0,0,0,111.16,357.513Z" transform="translate(-46.419 -330.459)"/>
    <path id="Path_72" data-name="Path 72" d="M62.439,436.681h23.84a.992.992,0,0,0,1-1.033,7.929,7.929,0,0,0-1.306-4.287,49.327,49.327,0,0,1-23.193-.038,7.862,7.862,0,0,0-1.337,4.325A.992.992,0,0,0,62.439,436.681Z" transform="translate(0 -402.681)" fill="rgba(0,0,0,0.5)"/>
    <path id="Path_73" data-name="Path 73" d="M177.954,159.856a13.454,13.454,0,0,0-1.034-4.85,1,1,0,0,0-1.754-.246c-1.839,2.6-6.372,3.177-8.236,3.3a1,1,0,0,0-.929.994v1.036a5.98,5.98,0,1,0,11.953-.236Z" transform="translate(-97.618 -144.089)"/>
  </g>
</svg>
