<svg xmlns="http://www.w3.org/2000/svg" width="44" height="44" viewBox="0 0 44 44">
  <g id="Group_54" data-name="Group 54" transform="translate(-559 -605)">
    <g id="Group_31" data-name="Group 31" transform="translate(-368 126)">
      <g id="Path_1" data-name="Path 1" transform="translate(927 479)" fill="none">
        <path d="M22,0A22,22,0,1,1,0,22,22,22,0,0,1,22,0Z" stroke="none"/>
        <path d="M 22 3 C 16.9249095916748 3 12.15358924865723 4.976341247558594 8.564968109130859 8.564968109130859 C 4.976341247558594 12.15358924865723 3 16.9249095916748 3 22 C 3 27.07508087158203 4.976341247558594 31.84640121459961 8.564968109130859 35.43502807617188 C 12.15360069274902 39.02365112304688 16.9249095916748 41 22 41 C 27.07508087158203 41 31.84640121459961 39.02365112304688 35.43502807617188 35.43502807617188 C 39.02365112304688 31.84640121459961 41 27.07508087158203 41 22 C 41 16.9249095916748 39.02365112304688 12.15360069274902 35.43502807617188 8.564968109130859 C 31.84640121459961 4.976341247558594 27.07508087158203 3 22 3 M 22 0 C 34.15026092529297 0 44 9.8497314453125 44 22 C 44 34.15026092529297 34.15026092529297 44 22 44 C 9.8497314453125 44 0 34.15026092529297 0 22 C 0 9.8497314453125 9.8497314453125 0 22 0 Z" stroke="none" fill="#fff"/>
      </g>
    </g>
    <path id="Path_5" data-name="Path 5" d="M9.945.029a2.454,2.454,0,0,0-.674-1.773A5.871,5.871,0,0,0,7.026-3.006,17.552,17.552,0,0,1,4.582-4.047,5.034,5.034,0,0,1,1.675-8.716a4.849,4.849,0,0,1,1.26-3.445,5.343,5.343,0,0,1,3.418-1.6v-2.751h2v2.776A4.927,4.927,0,0,1,11.7-11.876a6.424,6.424,0,0,1,1.185,4.019H9.871a4.009,4.009,0,0,0-.7-2.5,2.288,2.288,0,0,0-1.915-.915,2.568,2.568,0,0,0-1.871.656,2.506,2.506,0,0,0-.674,1.88,2.37,2.37,0,0,0,.667,1.76A6.471,6.471,0,0,0,7.638-5.725a19.024,19.024,0,0,1,2.507,1.1,6.419,6.419,0,0,1,1.534,1.155,4.593,4.593,0,0,1,.96,1.5A5.334,5.334,0,0,1,12.977,0a4.744,4.744,0,0,1-1.291,3.457,5.652,5.652,0,0,1-3.6,1.565V7.486H6.1V5.038a5.676,5.676,0,0,1-3.8-1.792A5.864,5.864,0,0,1,.977-.766H4.008A3.527,3.527,0,0,0,4.8,1.695a2.873,2.873,0,0,0,2.239.871A3.057,3.057,0,0,0,9.2,1.871,2.4,2.4,0,0,0,9.945.029Z" transform="translate(574.023 631.514)" fill="#fff"/>
  </g>
</svg>
