<?xml version="1.0" encoding="utf-8"?>
<!-- Generator: Adobe Illustrator 16.0.0, SVG Export Plug-In . SVG Version: 6.00 Build 0)  -->
<!DOCTYPE svg PUBLIC "-//W3C//DTD SVG 1.1//EN" "http://www.w3.org/Graphics/SVG/1.1/DTD/svg11.dtd">
<svg version="1.1" id="Layer_1" xmlns="http://www.w3.org/2000/svg" xmlns:xlink="http://www.w3.org/1999/xlink" x="0px" y="0px"
	 width="685.47px" height="817.46px" viewBox="615.355 112.861 685.47 817.46"
	 enable-background="new 615.355 112.861 685.47 817.46" xml:space="preserve">
<g>
	<g>
		<path fill="#E4E6EF" d="M903.18,511.396c0-7.857-6.359-14.218-14.218-14.218c-7.857,0-14.218,6.36-14.218,14.218
			c0,18.967,12.539,41.286,69.454,44.39v27.656c0,7.669,6.225,13.894,13.893,13.894c7.669,0,13.895-6.225,13.895-13.894v-27.847
			c62.333-5.287,69.453-46.251,69.453-64.56c0-27.604-12.538-60.072-69.453-64.585v-63.06c21.024,2.257,29.371,9.428,29.527,14.621
			c-0.512,7.56,5.023,14.243,12.612,15.095c7.817,0.729,14.837-4.767,15.715-12.557c0.257-2.35,1.026-14.623-9.545-26.437
			c-9.871-11.029-26.146-17.451-48.31-19.305v-27.883c0-7.67-6.226-13.895-13.895-13.895c-7.668,0-13.893,6.225-13.893,13.895
			v27.916c-47.674,3.203-69.454,23.336-69.454,64.516c0,45.504,42.957,53.309,69.454,54.653v73.261
			C919.235,525.66,903.18,519.707,903.18,511.396z M1013.003,491.035c0,8.222-0.146,31.624-41.018,35.952v-72.124
			C1000.896,457.318,1013.003,468.306,1013.003,491.035z M903.18,399.357c0-16.371,0.146-33.193,41.019-36.212v62.251
			C903.325,422.667,903.18,407.751,903.18,399.357z"/>
		<path fill="#E4E6EF" d="M958.091,666.396c122.174,0,221.212-99.04,221.212-221.213s-99.038-221.212-221.212-221.212
			c-122.171,0-221.213,99.039-221.213,221.212S835.92,666.396,958.091,666.396z M958.091,251.622
			c106.731,0,193.562,86.83,193.562,193.561s-86.83,193.563-193.562,193.563c-106.729,0-193.562-86.832-193.562-193.563
			S851.361,251.622,958.091,251.622z"/>
	</g>
	<path fill="#E4E6EF" d="M1124,707.36H792.181c-15.58,0-28.272,12.693-28.272,28.275v55.303c0,15.58,12.692,28.273,28.272,28.273
		H1124c15.581,0,28.273-12.693,28.273-28.273v-55.303C1152.273,720.054,1139.581,707.36,1124,707.36z M792.803,790.938
		l-0.622-54.684h331.212l0.607,54.061L792.803,790.938z"/>
</g>
</svg>
