<?xml version="1.0" encoding="utf-8"?>
<!-- Generator: Adobe Illustrator 16.0.0, SVG Export Plug-In . SVG Version: 6.00 Build 0)  -->
<!DOCTYPE svg PUBLIC "-//W3C//DTD SVG 1.1//EN" "http://www.w3.org/Graphics/SVG/1.1/DTD/svg11.dtd">
<svg version="1.1" id="Layer_1" xmlns="http://www.w3.org/2000/svg" xmlns:xlink="http://www.w3.org/1999/xlink" x="0px" y="0px"
	 width="685.47px" height="817.46px" viewBox="615.355 112.861 685.47 817.46"
	 enable-background="new 615.355 112.861 685.47 817.46" xml:space="preserve">
<g>
	<g>
		<path fill="#E4E6EF" d="M903.18,438.994c0-7.857-6.359-14.217-14.218-14.217c-7.857,0-14.218,6.36-14.218,14.217
			c0,18.967,12.539,41.287,69.454,44.39v27.656c0,7.669,6.225,13.894,13.893,13.894c7.669,0,13.895-6.225,13.895-13.894v-27.847
			c62.333-5.287,69.453-46.251,69.453-64.56c0-27.603-12.538-60.072-69.453-64.584v-63.06c21.024,2.256,29.371,9.428,29.527,14.621
			c-0.512,7.56,5.023,14.243,12.612,15.095c7.817,0.729,14.837-4.767,15.715-12.557c0.257-2.35,1.026-14.624-9.545-26.437
			c-9.871-11.03-26.146-17.451-48.31-19.305v-27.883c0-7.669-6.226-13.894-13.895-13.894c-7.668,0-13.893,6.225-13.893,13.894
			v27.917c-47.674,3.203-69.454,23.335-69.454,64.515c0,45.504,42.957,53.309,69.454,54.654v73.261
			C919.235,453.258,903.18,447.306,903.18,438.994z M1013.003,418.633c0,8.222-0.146,31.624-41.018,35.953v-72.124
			C1000.896,384.917,1013.003,395.904,1013.003,418.633z M903.18,326.956c0-16.371,0.146-33.193,41.019-36.211v62.251
			C903.325,350.266,903.18,335.35,903.18,326.956z"/>
		<path fill="#E4E6EF" d="M958.091,593.994c122.174,0,221.212-99.041,221.212-221.213c0-122.173-99.038-221.212-221.212-221.212
			c-122.171,0-221.213,99.039-221.213,221.212C736.878,494.954,835.92,593.994,958.091,593.994z M958.091,179.221
			c106.731,0,193.562,86.83,193.562,193.561c0,106.73-86.83,193.563-193.562,193.563c-106.729,0-193.562-86.832-193.562-193.563
			C764.529,266.05,851.361,179.221,958.091,179.221z"/>
	</g>
	<path fill="#E4E6EF" d="M1124,779.764H792.181c-15.58,0-28.272,12.693-28.272,28.273v55.305c0,15.58,12.692,28.271,28.272,28.271
		H1124c15.581,0,28.273-12.691,28.273-28.271v-55.305C1152.273,792.457,1139.581,779.764,1124,779.764z M792.803,863.342
		l-0.622-54.682h331.212l0.607,54.059L792.803,863.342z"/>
	<path fill="#E4E6EF" d="M1124,634.959H792.181c-15.58,0-28.272,12.693-28.272,28.275v55.303c0,15.58,12.692,28.273,28.272,28.273
		H1124c15.581,0,28.273-12.693,28.273-28.273v-55.303C1152.273,647.652,1139.581,634.959,1124,634.959z M792.803,718.537
		l-0.622-54.684h331.212l0.607,54.061L792.803,718.537z"/>
</g>
</svg>
