<?xml version="1.0" encoding="utf-8"?>
<!-- Generator: Adobe Illustrator 16.0.0, SVG Export Plug-In . SVG Version: 6.00 Build 0)  -->
<!DOCTYPE svg PUBLIC "-//W3C//DTD SVG 1.1//EN" "http://www.w3.org/Graphics/SVG/1.1/DTD/svg11.dtd">
<svg version="1.1" id="Layer_1" xmlns="http://www.w3.org/2000/svg" xmlns:xlink="http://www.w3.org/1999/xlink" x="0px" y="0px"
	 width="1072.446px" height="1080px" viewBox="427.117 0 1072.446 1080" enable-background="new 427.117 0 1072.446 1080"
	 xml:space="preserve">
<g>
	<path fill="#E4E6EF" d="M656.35,350.436c0-9.59-7.763-17.353-17.354-17.353c-9.59,0-17.353,7.763-17.353,17.353
		c0,23.15,15.304,50.393,84.771,54.181v33.755c0,9.36,7.598,16.958,16.956,16.958c9.36,0,16.958-7.598,16.958-16.958v-33.988
		c76.081-6.452,84.771-56.451,84.771-78.798c0-33.69-15.304-73.32-84.771-78.828v-76.967c25.662,2.754,35.85,11.507,36.041,17.845
		c-0.626,9.227,6.131,17.385,15.393,18.424c9.541,0.89,18.109-5.818,19.182-15.326c0.313-2.869,1.252-17.849-11.65-32.267
		c-12.049-13.463-31.912-21.3-58.965-23.563v-34.034c0-9.36-7.598-16.958-16.958-16.958c-9.358,0-16.956,7.597-16.956,16.958v34.074
		c-58.188,3.91-84.771,28.481-84.771,78.744c0,55.539,52.431,65.065,84.771,66.707v89.417
		C675.945,367.847,656.35,360.581,656.35,350.436z M790.393,325.585c0,10.036-0.177,38.599-50.064,43.882v-88.03
		C775.617,284.433,790.393,297.843,790.393,325.585z M656.35,213.689c0-19.982,0.177-40.514,50.064-44.199v75.981
		C656.526,242.14,656.35,223.934,656.35,213.689z"/>
	<path fill="#E4E6EF" d="M723.37,539.621c149.118,0,270-120.884,270-270c0-149.118-120.882-270-270-270
		c-149.115,0-270,120.882-270,270C453.37,418.737,574.255,539.621,723.37,539.621z M723.37,33.371
		c130.271,0,236.25,105.98,236.25,236.25c0,130.269-105.979,236.25-236.25,236.25c-130.269,0-236.25-105.981-236.25-236.25
		C487.12,139.351,593.102,33.371,723.37,33.371z"/>
	<path fill="#E4E6EF" d="M925.87,606.361h-405c-19.017,0-34.508,15.492-34.508,34.51v67.5c0,19.017,15.491,34.508,34.508,34.508h405
		c19.019,0,34.51-15.491,34.51-34.508v-67.5C960.38,621.854,944.889,606.361,925.87,606.361z M521.63,708.371l-0.76-66.742h404.26
		l0.74,65.982L521.63,708.371z"/>
	<path fill="#E4E6EF" d="M925.87,775.111h-405c-19.017,0-34.508,15.492-34.508,34.51v67.5c0,19.017,15.491,34.508,34.508,34.508h405
		c19.019,0,34.51-15.491,34.51-34.508v-67.5C960.38,790.604,944.889,775.111,925.87,775.111z M521.63,877.121l-0.76-66.742h404.26
		l0.74,65.982L521.63,877.121z"/>
	<path fill="#E4E6EF" d="M925.87,943.861h-405c-19.017,0-34.508,15.492-34.508,34.51v67.5c0,19.017,15.491,34.508,34.508,34.508h405
		c19.019,0,34.51-15.491,34.51-34.508v-67.5C960.38,959.354,944.889,943.861,925.87,943.861z M521.63,1045.871l-0.76-66.742h404.26
		l0.74,65.982L521.63,1045.871z"/>
	<path fill="#E4E6EF" d="M1432.12,775.111h-405c-19.017,0-34.508,15.492-34.508,34.51v67.5c0,19.017,15.491,34.508,34.508,34.508
		h405c19.019,0,34.51-15.491,34.51-34.508v-67.5C1466.63,790.604,1451.139,775.111,1432.12,775.111z M1027.88,877.121l-0.76-66.742
		h404.259l0.741,65.982L1027.88,877.121z"/>
	<path fill="#E4E6EF" d="M1432.12,943.861h-405c-19.017,0-34.508,15.492-34.508,34.51v67.5c0,19.017,15.491,34.508,34.508,34.508
		h405c19.019,0,34.51-15.491,34.51-34.508v-67.5C1466.63,959.354,1451.139,943.861,1432.12,943.861z M1027.88,1045.871l-0.76-66.742
		h404.259l0.741,65.982L1027.88,1045.871z"/>
</g>
</svg>
